<?xml version="1.0" standalone="no"?>
<!DOCTYPE svg PUBLIC "-//W3C//DTD SVG 20010904//EN"
 "http://www.w3.org/TR/2001/REC-SVG-20010904/DTD/svg10.dtd">
<svg version="1.0" xmlns="http://www.w3.org/2000/svg"
 width="1290.000000pt" height="1290.000000pt" viewBox="0 0 890.000000 890.000000"
 preserveAspectRatio="xMidYMid meet">

<g transform="translate(0.000000,890.000000) scale(0.100000,-0.100000)"
fill="#000000" stroke="none">
<path d="M4708 5293 c-21 -2 -38 -8 -38 -12 0 -4 32 -4 72 0 58 7 213 -3 224
-14 2 -1 -54 -1 -124 1 -99 3 -138 1 -175 -12 -26 -9 -61 -16 -77 -16 -43 0
-135 -37 -184 -75 -24 -18 -47 -30 -51 -27 -4 4 -5 2 -4 -3 2 -6 -5 -30 -15
-55 -10 -25 -21 -70 -23 -101 l-4 -56 63 3 c35 1 99 7 143 13 44 6 109 13 145
16 107 9 453 10 488 1 28 -7 32 -12 32 -40 0 -41 -26 -128 -55 -186 -29 -56
-64 -90 -135 -130 -30 -18 -46 -29 -35 -25 11 4 30 10 43 13 36 7 118 87 141
138 12 25 29 73 37 107 9 34 21 67 26 74 5 7 9 22 8 35 -3 39 -1 48 15 48 12
0 12 5 0 41 -8 23 -15 51 -15 63 0 22 -68 94 -107 115 -14 7 -20 18 -18 31 2
11 0 18 -4 16 -4 -3 -26 4 -48 15 -33 16 -66 21 -165 24 -67 1 -140 1 -160 -2z
m322 -45 c0 -10 -9 -9 -35 2 -17 8 -16 8 8 7 15 -1 27 -5 27 -9z"/>
<path d="M4630 5270 c20 -13 33 -13 25 0 -3 6 -14 10 -23 10 -15 0 -15 -2 -2
-10z"/>
<path d="M4573 5253 c9 -2 23 -2 30 0 6 3 -1 5 -18 5 -16 0 -22 -2 -12 -5z"/>
<path d="M4498 5243 c6 -2 18 -2 25 0 6 3 1 5 -13 5 -14 0 -19 -2 -12 -5z"/>
<path d="M4424 5209 c-34 -15 -90 -61 -59 -48 30 12 115 60 115 64 0 8 -12 4
-56 -16z"/>
<path d="M5120 5214 c19 -8 43 -23 55 -32 19 -16 19 -16 6 1 -16 21 -63 47
-83 47 -7 -1 3 -8 22 -16z"/>
<path d="M3970 5140 c-8 -5 -40 -10 -70 -10 -30 0 -70 -4 -88 -9 -30 -9 -47 1
-19 12 7 3 5 6 -5 6 -9 1 -21 -5 -25 -13 -4 -7 -39 -21 -78 -30 -203 -50 -348
-177 -409 -358 -3 -10 -12 -18 -21 -18 -20 0 -19 -26 1 -34 10 -4 14 -12 10
-23 -4 -9 -7 -64 -7 -123 l0 -107 59 -62 c54 -57 63 -63 113 -70 36 -5 91 -26
164 -65 61 -31 212 -102 336 -156 316 -139 328 -146 638 -382 119 -91 189
-138 205 -138 14 0 37 11 52 23 l27 24 -19 26 c-20 26 -39 40 -280 196 -140
91 -169 106 -143 74 8 -9 -18 4 -56 28 -39 25 -107 66 -152 93 -46 26 -83 50
-83 52 0 8 93 -43 184 -100 49 -31 91 -54 93 -52 7 7 -92 68 -287 179 -249
142 -435 270 -426 294 3 7 -1 10 -10 6 -13 -5 -43 14 -106 69 -14 13 -36 31
-48 41 -18 16 -20 21 -8 35 12 15 11 16 -4 4 -15 -12 -21 -11 -45 6 -30 22
-96 90 -76 78 7 -4 21 1 33 11 11 10 23 17 25 16 3 -1 49 18 102 43 82 39 156
63 298 100 63 16 136 27 142 20 20 -19 -82 -193 -166 -284 -31 -34 -55 -62
-53 -62 3 0 -3 -10 -14 -22 -17 -20 -15 -20 16 3 58 42 167 187 216 286 26 51
50 93 55 93 5 0 9 7 9 15 0 13 4 14 23 4 l22 -11 -23 22 c-24 23 -24 31 4 98
7 18 9 30 4 27 -6 -4 -10 7 -10 23 0 39 -32 78 -77 93 -28 9 -33 13 -21 20 17
10 63 -9 65 -26 1 -5 10 -12 20 -14 15 -3 16 -1 3 14 -11 14 -62 45 -72 45 -2
0 -10 -5 -18 -10z m-531 -826 c2 -2 -5 -4 -16 -4 -23 0 -84 39 -91 58 -3 10
88 -36 107 -54z"/>
<path d="M4116 5035 c-11 -8 -17 -17 -14 -20 2 -3 13 4 23 15 21 23 18 25 -9
5z"/>
<path d="M5303 5043 c-7 -3 -13 -13 -13 -24 0 -10 -6 -19 -13 -19 -7 0 -18 -9
-25 -20 -11 -18 -10 -20 8 -20 12 0 20 -7 21 -17 0 -10 2 -28 3 -40 2 -13 -1
-23 -6 -23 -4 0 -8 -5 -8 -11 0 -5 4 -8 10 -4 5 3 14 -14 21 -37 6 -24 25 -88
42 -143 28 -89 31 -114 31 -230 1 -218 -45 -342 -230 -627 -69 -107 -98 -176
-82 -195 15 -19 26 -16 33 7 4 12 41 76 84 143 141 222 192 329 228 477 26
107 24 325 -5 487 -44 245 -65 307 -99 296z m8 -983 c-22 -45 -77 -137 -120
-204 -44 -66 -87 -138 -96 -158 -18 -45 -27 -50 -15 -9 11 38 20 54 104 184
40 61 92 150 115 196 23 45 45 81 48 78 3 -3 -13 -42 -36 -87z"/>
<path d="M3347 4935 c-20 -20 -41 -45 -47 -56 -10 -18 -9 -19 7 -8 25 17 87
89 81 94 -3 3 -21 -11 -41 -30z"/>
<path d="M4327 4890 c8 -30 21 -34 15 -5 -2 14 -8 25 -12 25 -5 0 -6 -9 -3
-20z"/>
<path d="M4391 4861 c13 -11 26 -18 28 -15 7 7 -21 34 -36 34 -10 0 -8 -6 8
-19z"/>
<path d="M3261 4789 c-7 -23 -10 -44 -7 -47 3 -3 6 1 6 9 0 8 7 26 14 41 8 15
11 30 7 33 -5 2 -14 -14 -20 -36z"/>
<path d="M4053 4810 c-13 -5 -23 -17 -23 -25 0 -9 5 -13 11 -9 6 3 15 0 20 -7
7 -12 9 -11 10 1 0 8 2 23 4 33 2 9 3 17 2 16 -1 0 -12 -4 -24 -9z"/>
<path d="M4425 4719 c7 -20 64 -65 120 -98 36 -21 161 -60 193 -61 34 0 -4 19
-60 30 -81 17 -173 62 -221 108 -21 20 -35 30 -32 21z"/>
<path d="M3202 4595 c0 -16 2 -22 5 -12 2 9 2 23 0 30 -3 6 -5 -1 -5 -18z"/>
<path d="M4761 4566 c2 -2 22 -6 44 -9 28 -5 34 -4 20 3 -19 8 -73 14 -64 6z"/>
<path d="M2732 2304 c-51 -35 -99 -185 -105 -330 -2 -38 -6 -75 -10 -81 -12
-19 -77 -44 -98 -38 -41 13 -47 96 -8 131 16 14 19 15 24 2 3 -8 5 -21 3 -27
-2 -7 5 -18 15 -24 36 -23 64 56 35 96 -7 9 -26 19 -43 22 -63 12 -135 -58
-135 -131 0 -30 -25 -64 -48 -64 -16 0 -15 14 3 101 18 83 14 102 -16 97 -25
-4 -32 -13 -59 -89 -23 -63 -45 -97 -56 -86 -4 4 -2 43 5 88 8 44 11 82 8 86
-3 3 -18 2 -32 -1 -29 -7 -42 -34 -53 -109 -13 -88 -92 -119 -100 -39 -2 17 6
74 17 127 29 130 28 179 -4 210 -48 49 -141 28 -194 -45 l-29 -40 -6 42 c-9
55 -21 68 -63 68 -44 0 -82 -20 -122 -65 -34 -39 -38 -57 -18 -74 11 -8 22 -3
50 24 39 38 77 47 77 18 0 -10 -9 -76 -20 -147 -22 -143 -27 -207 -16 -224 11
-18 54 -14 64 6 5 9 12 37 16 62 20 136 73 273 118 304 28 20 74 21 82 1 3 -8
-7 -73 -21 -144 -24 -112 -26 -133 -15 -169 20 -66 90 -91 156 -57 26 14 31
14 46 0 23 -21 50 -19 77 7 l23 22 16 -22 c19 -28 73 -29 105 -3 22 18 23 18
56 -2 42 -24 118 -20 158 10 l28 20 24 -25 c21 -21 31 -24 70 -19 25 2 52 12
60 20 14 14 19 14 52 -4 44 -23 99 -24 145 -2 33 15 37 15 54 0 26 -24 57 -21
80 8 l20 25 16 -25 c33 -50 111 -22 168 60 30 42 34 44 45 29 20 -27 15 -44
-12 -44 -33 0 -49 -30 -29 -58 22 -32 83 -30 113 2 33 35 31 84 -3 136 -23 35
-26 48 -21 82 l7 39 -33 -3 c-30 -3 -37 -10 -64 -64 -53 -107 -115 -169 -115
-115 0 11 7 52 15 91 16 77 14 90 -14 90 -25 0 -38 -17 -60 -82 -39 -112 -68
-131 -56 -35 13 106 12 112 -12 115 -29 4 -51 -31 -59 -94 -4 -27 -10 -56 -15
-65 -12 -24 -77 -52 -105 -45 -34 9 -30 18 16 38 75 31 89 126 25 157 -25 12
-35 12 -69 0 -48 -17 -80 -60 -90 -120 -8 -52 -21 -69 -52 -69 -43 0 -45 28
-4 91 81 126 119 273 86 337 -19 37 -56 43 -94 16z m39 -129 c-13 -72 -64
-191 -69 -163 -5 25 24 168 42 213 13 29 19 36 28 27 9 -9 9 -28 -1 -77z m159
-199 c0 -19 -27 -46 -46 -46 -17 0 -18 14 -4 41 12 22 50 26 50 5z"/>
<path d="M3769 2267 c-67 -19 -113 -49 -117 -76 -6 -40 11 -43 74 -14 118 55
237 31 264 -53 16 -47 5 -128 -23 -179 -27 -49 -92 -85 -155 -85 l-43 0 6 38
c3 20 15 81 26 136 11 54 18 104 15 112 -6 15 -43 19 -63 6 -22 -14 -77 -291
-66 -332 6 -23 32 -30 109 -30 124 0 213 49 260 145 21 45 26 69 26 130 0 95
-29 152 -96 184 -55 27 -156 35 -217 18z"/>
<path d="M6372 2246 c-27 -31 -50 -87 -66 -158 -5 -21 -12 -28 -30 -28 -14 0
-25 -7 -28 -17 -7 -27 2 -43 23 -43 31 0 27 -79 -5 -109 -24 -23 -46 -21 -46
2 0 7 -12 29 -26 50 -21 32 -24 45 -19 78 l7 40 -33 -3 c-30 -3 -37 -9 -62
-63 -16 -32 -42 -76 -59 -97 -16 -21 -28 -46 -26 -55 6 -33 42 -20 78 30 31
42 36 45 48 30 19 -26 14 -43 -13 -43 -34 0 -49 -30 -28 -59 13 -19 22 -22 57
-18 69 9 100 19 134 44 28 21 33 22 38 8 17 -42 108 -58 159 -27 29 18 31 18
60 0 37 -22 106 -23 147 -2 28 15 32 15 40 0 5 -9 19 -16 32 -16 24 0 24 0 60
102 10 25 24 52 33 59 13 12 14 6 8 -53 -8 -76 3 -108 40 -108 20 0 26 9 45
65 12 35 30 75 41 87 19 23 19 23 16 -62 -2 -82 -1 -85 21 -88 40 -6 49 12 56
113 3 52 9 101 12 108 3 8 -3 22 -12 31 -24 24 -62 13 -101 -29 l-33 -35 0 28
c0 66 -48 68 -108 6 -35 -37 -43 -42 -37 -23 3 13 9 31 11 41 6 21 -11 31 -41
24 -26 -7 -39 -39 -50 -117 -6 -41 -12 -49 -46 -68 -39 -23 -79 -25 -86 -6 -2
6 12 16 31 23 42 15 68 53 68 98 0 41 -13 60 -48 68 -68 17 -139 -42 -150
-125 -7 -51 -23 -69 -62 -69 -33 0 -52 32 -52 88 l0 52 46 0 c55 0 84 14 84
40 0 16 -7 20 -35 20 l-35 0 26 40 c30 46 43 125 25 159 -19 35 -72 29 -109
-13z m55 -66 c-6 -44 -38 -103 -45 -82 -2 6 4 36 13 67 18 65 40 75 32 15z
m193 -202 c0 -16 -31 -48 -47 -48 -16 0 -17 14 -3 41 12 21 50 26 50 7z"/>
<path d="M5535 2263 c-58 -15 -105 -76 -105 -137 0 -51 40 -90 140 -140 89
-43 104 -63 78 -99 -20 -27 -89 -39 -135 -24 -35 11 -38 15 -43 57 -4 38 -9
46 -29 48 -47 7 -67 -59 -36 -117 19 -38 80 -61 158 -61 116 1 177 49 177 141
0 35 -6 47 -34 74 -19 18 -58 41 -87 51 -51 18 -109 62 -109 82 0 5 9 21 21
36 18 22 28 26 74 26 44 0 57 -4 69 -22 8 -12 13 -25 10 -30 -3 -5 -3 -20 0
-34 5 -17 13 -24 29 -24 33 0 47 19 47 65 0 49 -22 83 -66 101 -32 13 -118 17
-159 7z"/>
<path d="M4617 2159 c-29 -41 9 -81 62 -64 26 8 38 50 21 70 -18 22 -66 19
-83 -6z"/>
<path d="M4205 2053 c-11 -3 -31 -15 -43 -26 -71 -65 -70 -174 0 -217 70 -43
172 -14 228 64 30 41 34 44 46 28 20 -26 17 -42 -9 -42 -43 0 -60 -35 -31 -64
24 -24 69 -20 162 15 16 7 30 5 45 -6 28 -19 67 -19 95 1 20 14 24 14 44 0 12
-9 34 -16 47 -16 24 0 22 -4 -26 -52 -60 -63 -73 -85 -73 -131 0 -41 25 -67
66 -67 59 0 97 54 129 182 14 53 22 67 54 90 l38 27 11 -24 c12 -27 43 -33 59
-12 6 6 18 36 27 64 10 29 26 63 36 75 19 23 19 23 17 -62 l-2 -85 27 -3 c38
-4 45 15 53 144 7 106 6 112 -13 118 -30 10 -66 -8 -101 -51 l-31 -38 6 48 c6
42 5 47 -13 47 -35 0 -53 -24 -64 -85 -8 -43 -19 -67 -38 -84 -26 -24 -26 -24
-29 -3 -2 11 1 46 7 78 12 64 9 74 -24 74 -13 0 -25 5 -27 11 -7 21 -76 0
-112 -34 -20 -19 -39 -50 -46 -77 -16 -56 -45 -89 -61 -73 -9 9 -9 30 1 87 14
83 10 106 -18 106 -29 0 -39 -18 -53 -90 -12 -61 -32 -100 -51 -100 -4 0 -8 7
-8 15 0 8 -13 35 -29 61 -24 37 -28 51 -20 71 14 39 11 44 -23 41 -30 -3 -37
-10 -70 -73 -55 -105 -118 -152 -171 -128 -21 10 -20 11 14 26 53 22 79 54 79
96 0 42 -7 54 -37 70 -22 11 -34 12 -68 4z m650 -95 c-9 -53 -31 -108 -43
-108 -5 0 -15 6 -21 14 -16 19 1 81 30 112 33 35 42 30 34 -18z m-611 24 c9
-14 -24 -52 -44 -52 -14 0 -18 5 -13 18 13 37 44 55 57 34z m556 -326 c-18
-57 -60 -77 -46 -23 7 31 49 84 54 69 2 -7 -1 -27 -8 -46z"/>
<path d="M5816 2038 c-19 -29 -39 -154 -31 -188 14 -54 67 -79 95 -45 7 9 15
13 18 11 2 -3 -25 -34 -61 -70 -47 -45 -69 -76 -76 -104 -13 -45 -2 -86 24
-96 60 -23 112 14 146 103 21 58 82 388 73 402 -8 14 -40 11 -53 -5 -6 -7 -20
-38 -30 -68 -39 -112 -68 -131 -56 -35 13 106 12 112 -12 115 -14 2 -27 -5
-37 -20z m45 -393 c-22 -49 -41 -59 -41 -21 0 26 52 96 58 78 2 -6 -6 -32 -17
-57z"/>
</g>
</svg>
